<mxfile host="app.diagrams.net" modified="2023-12-16T17:42:23.462Z" agent="Mozilla/5.0 (Windows NT 10.0; Win64; x64) AppleWebKit/537.36 (KHTML, like Gecko) Chrome/119.0.0.0 Safari/537.36 Avast/119.0.0.0" etag="BdlOSJfU2V-UNHqGCnDj" version="22.1.11" type="device">
  <diagram name="1 oldal" id="78AdKG-9HJylzrpgqkPk">
    <mxGraphModel dx="3881" dy="1068" grid="1" gridSize="10" guides="1" tooltips="1" connect="1" arrows="1" fold="1" page="1" pageScale="1" pageWidth="1169" pageHeight="827" math="0" shadow="0">
      <root>
        <mxCell id="0" />
        <mxCell id="1" parent="0" />
        <mxCell id="z3j5BvlBVhHUqeo-Ht9p-2" value="Facebook_GCNS8S" style="ellipse;shape=doubleEllipse;margin=3;whiteSpace=wrap;html=1;align=center;" vertex="1" parent="1">
          <mxGeometry x="530" y="10" width="130" height="60" as="geometry" />
        </mxCell>
        <mxCell id="z3j5BvlBVhHUqeo-Ht9p-5" value="Users" style="ellipse;shape=doubleEllipse;margin=3;whiteSpace=wrap;html=1;align=center;" vertex="1" parent="1">
          <mxGeometry x="-910" y="210" width="70" height="30" as="geometry" />
        </mxCell>
        <mxCell id="z3j5BvlBVhHUqeo-Ht9p-7" value="Posts" style="ellipse;shape=doubleEllipse;margin=3;whiteSpace=wrap;html=1;align=center;" vertex="1" parent="1">
          <mxGeometry y="210" width="70" height="30" as="geometry" />
        </mxCell>
        <mxCell id="z3j5BvlBVhHUqeo-Ht9p-8" value="Comments" style="ellipse;shape=doubleEllipse;margin=3;whiteSpace=wrap;html=1;align=center;" vertex="1" parent="1">
          <mxGeometry x="1099" y="210" width="70" height="30" as="geometry" />
        </mxCell>
        <mxCell id="z3j5BvlBVhHUqeo-Ht9p-9" value="Images" style="ellipse;shape=doubleEllipse;margin=3;whiteSpace=wrap;html=1;align=center;" vertex="1" parent="1">
          <mxGeometry x="580" y="210" width="70" height="30" as="geometry" />
        </mxCell>
        <mxCell id="z3j5BvlBVhHUqeo-Ht9p-10" value="Groups" style="ellipse;shape=doubleEllipse;margin=3;whiteSpace=wrap;html=1;align=center;" vertex="1" parent="1">
          <mxGeometry x="2030" y="210" width="70" height="30" as="geometry" />
        </mxCell>
        <mxCell id="z3j5BvlBVhHUqeo-Ht9p-11" value="SignedUp" style="ellipse;shape=doubleEllipse;margin=3;whiteSpace=wrap;html=1;align=center;" vertex="1" parent="1">
          <mxGeometry x="1560" y="210" width="70" height="30" as="geometry" />
        </mxCell>
        <mxCell id="z3j5BvlBVhHUqeo-Ht9p-13" value="" style="endArrow=none;html=1;rounded=0;exitX=1;exitY=0;exitDx=0;exitDy=0;entryX=0;entryY=0.5;entryDx=0;entryDy=0;" edge="1" parent="1" source="z3j5BvlBVhHUqeo-Ht9p-5" target="z3j5BvlBVhHUqeo-Ht9p-2">
          <mxGeometry relative="1" as="geometry">
            <mxPoint x="150" y="120" as="sourcePoint" />
            <mxPoint x="310" y="120" as="targetPoint" />
          </mxGeometry>
        </mxCell>
        <mxCell id="z3j5BvlBVhHUqeo-Ht9p-14" value="" style="endArrow=none;html=1;rounded=0;exitX=0.5;exitY=0;exitDx=0;exitDy=0;entryX=0;entryY=1;entryDx=0;entryDy=0;" edge="1" parent="1" source="z3j5BvlBVhHUqeo-Ht9p-7" target="z3j5BvlBVhHUqeo-Ht9p-2">
          <mxGeometry relative="1" as="geometry">
            <mxPoint x="150" y="224" as="sourcePoint" />
            <mxPoint x="540" y="70" as="targetPoint" />
          </mxGeometry>
        </mxCell>
        <mxCell id="z3j5BvlBVhHUqeo-Ht9p-15" value="" style="endArrow=none;html=1;rounded=0;exitX=0.5;exitY=0;exitDx=0;exitDy=0;entryX=0.5;entryY=1;entryDx=0;entryDy=0;" edge="1" parent="1" source="z3j5BvlBVhHUqeo-Ht9p-8" target="z3j5BvlBVhHUqeo-Ht9p-2">
          <mxGeometry relative="1" as="geometry">
            <mxPoint x="440" y="218.86" as="sourcePoint" />
            <mxPoint x="563.8781930575774" y="69.99916151527701" as="targetPoint" />
          </mxGeometry>
        </mxCell>
        <mxCell id="z3j5BvlBVhHUqeo-Ht9p-16" value="" style="endArrow=none;html=1;rounded=0;exitX=0.5;exitY=0;exitDx=0;exitDy=0;entryX=0.5;entryY=1;entryDx=0;entryDy=0;" edge="1" parent="1" source="z3j5BvlBVhHUqeo-Ht9p-9" target="z3j5BvlBVhHUqeo-Ht9p-2">
          <mxGeometry relative="1" as="geometry">
            <mxPoint x="510" y="214" as="sourcePoint" />
            <mxPoint x="610" y="90" as="targetPoint" />
          </mxGeometry>
        </mxCell>
        <mxCell id="z3j5BvlBVhHUqeo-Ht9p-17" value="" style="endArrow=none;html=1;rounded=0;exitX=0.5;exitY=0;exitDx=0;exitDy=0;entryX=1;entryY=1;entryDx=0;entryDy=0;" edge="1" parent="1" source="z3j5BvlBVhHUqeo-Ht9p-11" target="z3j5BvlBVhHUqeo-Ht9p-2">
          <mxGeometry relative="1" as="geometry">
            <mxPoint x="585" y="240" as="sourcePoint" />
            <mxPoint x="1045" y="66" as="targetPoint" />
          </mxGeometry>
        </mxCell>
        <mxCell id="z3j5BvlBVhHUqeo-Ht9p-18" value="" style="endArrow=none;html=1;rounded=0;entryX=1;entryY=0.5;entryDx=0;entryDy=0;exitX=0.5;exitY=0;exitDx=0;exitDy=0;" edge="1" parent="1" source="z3j5BvlBVhHUqeo-Ht9p-10" target="z3j5BvlBVhHUqeo-Ht9p-2">
          <mxGeometry relative="1" as="geometry">
            <mxPoint x="1020" y="220" as="sourcePoint" />
            <mxPoint x="1190" y="66" as="targetPoint" />
          </mxGeometry>
        </mxCell>
        <mxCell id="z3j5BvlBVhHUqeo-Ht9p-26" value="Name" style="ellipse;whiteSpace=wrap;html=1;align=center;" vertex="1" parent="1">
          <mxGeometry x="-780" y="288" width="80" height="26" as="geometry" />
        </mxCell>
        <mxCell id="z3j5BvlBVhHUqeo-Ht9p-27" value="Email" style="ellipse;whiteSpace=wrap;html=1;align=center;" vertex="1" parent="1">
          <mxGeometry x="-690" y="288" width="80" height="26" as="geometry" />
        </mxCell>
        <mxCell id="z3j5BvlBVhHUqeo-Ht9p-28" value="Address" style="ellipse;whiteSpace=wrap;html=1;align=center;" vertex="1" parent="1">
          <mxGeometry x="-990" y="290" width="80" height="26" as="geometry" />
        </mxCell>
        <mxCell id="z3j5BvlBVhHUqeo-Ht9p-34" value="UserThemes" style="ellipse;shape=doubleEllipse;margin=3;whiteSpace=wrap;html=1;align=center;" vertex="1" parent="1">
          <mxGeometry x="-1130" y="288" width="80" height="30" as="geometry" />
        </mxCell>
        <mxCell id="z3j5BvlBVhHUqeo-Ht9p-35" value="&lt;u&gt;UserID&lt;/u&gt;" style="shape=rhombus;perimeter=rhombusPerimeter;whiteSpace=wrap;html=1;align=center;" vertex="1" parent="1">
          <mxGeometry x="-570" y="276" width="80" height="50" as="geometry" />
        </mxCell>
        <mxCell id="z3j5BvlBVhHUqeo-Ht9p-37" value="ZipCode" style="ellipse;whiteSpace=wrap;html=1;align=center;" vertex="1" parent="1">
          <mxGeometry x="-1060" y="410" width="80" height="30" as="geometry" />
        </mxCell>
        <mxCell id="z3j5BvlBVhHUqeo-Ht9p-38" value="City" style="ellipse;whiteSpace=wrap;html=1;align=center;" vertex="1" parent="1">
          <mxGeometry x="-970" y="410" width="80" height="30" as="geometry" />
        </mxCell>
        <mxCell id="z3j5BvlBVhHUqeo-Ht9p-39" style="edgeStyle=orthogonalEdgeStyle;rounded=0;orthogonalLoop=1;jettySize=auto;html=1;exitX=0.5;exitY=1;exitDx=0;exitDy=0;" edge="1" parent="1" source="z3j5BvlBVhHUqeo-Ht9p-5" target="z3j5BvlBVhHUqeo-Ht9p-5">
          <mxGeometry relative="1" as="geometry" />
        </mxCell>
        <mxCell id="z3j5BvlBVhHUqeo-Ht9p-40" value="StreetAddress" style="ellipse;whiteSpace=wrap;html=1;align=center;" vertex="1" parent="1">
          <mxGeometry x="-880" y="410" width="80" height="30" as="geometry" />
        </mxCell>
        <mxCell id="z3j5BvlBVhHUqeo-Ht9p-41" value="" style="whiteSpace=wrap;html=1;rotation=90;" vertex="1" parent="1">
          <mxGeometry x="-1050" y="510" width="60" height="35" as="geometry" />
        </mxCell>
        <mxCell id="z3j5BvlBVhHUqeo-Ht9p-43" value="" style="whiteSpace=wrap;html=1;rotation=90;" vertex="1" parent="1">
          <mxGeometry x="-960" y="510" width="60" height="35" as="geometry" />
        </mxCell>
        <mxCell id="z3j5BvlBVhHUqeo-Ht9p-44" value="" style="whiteSpace=wrap;html=1;rotation=90;" vertex="1" parent="1">
          <mxGeometry x="-870" y="510" width="60" height="35" as="geometry" />
        </mxCell>
        <mxCell id="z3j5BvlBVhHUqeo-Ht9p-45" value="" style="whiteSpace=wrap;html=1;rotation=90;" vertex="1" parent="1">
          <mxGeometry x="-770" y="414" width="60" height="35" as="geometry" />
        </mxCell>
        <mxCell id="z3j5BvlBVhHUqeo-Ht9p-46" value="" style="whiteSpace=wrap;html=1;rotation=90;" vertex="1" parent="1">
          <mxGeometry x="-680" y="414" width="60" height="35" as="geometry" />
        </mxCell>
        <mxCell id="z3j5BvlBVhHUqeo-Ht9p-49" value="" style="whiteSpace=wrap;html=1;rotation=90;" vertex="1" parent="1">
          <mxGeometry x="-1120" y="414" width="60" height="35" as="geometry" />
        </mxCell>
        <mxCell id="z3j5BvlBVhHUqeo-Ht9p-50" value="" style="endArrow=none;html=1;rounded=0;entryX=0.5;entryY=1;entryDx=0;entryDy=0;exitX=0;exitY=0.5;exitDx=0;exitDy=0;" edge="1" parent="1" source="z3j5BvlBVhHUqeo-Ht9p-45" target="z3j5BvlBVhHUqeo-Ht9p-26">
          <mxGeometry relative="1" as="geometry">
            <mxPoint x="-740" y="380" as="sourcePoint" />
            <mxPoint x="-740" y="330" as="targetPoint" />
          </mxGeometry>
        </mxCell>
        <mxCell id="z3j5BvlBVhHUqeo-Ht9p-51" value="" style="endArrow=none;html=1;rounded=0;exitX=0;exitY=0.5;exitDx=0;exitDy=0;entryX=0.5;entryY=1;entryDx=0;entryDy=0;" edge="1" parent="1">
          <mxGeometry relative="1" as="geometry">
            <mxPoint x="-650.67" y="402" as="sourcePoint" />
            <mxPoint x="-650.67" y="314" as="targetPoint" />
          </mxGeometry>
        </mxCell>
        <mxCell id="z3j5BvlBVhHUqeo-Ht9p-52" value="" style="endArrow=none;html=1;rounded=0;entryX=0.5;entryY=1;entryDx=0;entryDy=0;exitX=0;exitY=0.5;exitDx=0;exitDy=0;" edge="1" parent="1" source="z3j5BvlBVhHUqeo-Ht9p-49" target="z3j5BvlBVhHUqeo-Ht9p-34">
          <mxGeometry relative="1" as="geometry">
            <mxPoint x="-1090" y="390" as="sourcePoint" />
            <mxPoint x="-1090" y="340" as="targetPoint" />
          </mxGeometry>
        </mxCell>
        <mxCell id="z3j5BvlBVhHUqeo-Ht9p-53" value="" style="endArrow=none;html=1;rounded=0;exitX=0.5;exitY=0;exitDx=0;exitDy=0;entryX=0.5;entryY=1;entryDx=0;entryDy=0;" edge="1" parent="1" source="z3j5BvlBVhHUqeo-Ht9p-37" target="z3j5BvlBVhHUqeo-Ht9p-28">
          <mxGeometry relative="1" as="geometry">
            <mxPoint x="-980" y="418" as="sourcePoint" />
            <mxPoint x="-980" y="330" as="targetPoint" />
          </mxGeometry>
        </mxCell>
        <mxCell id="z3j5BvlBVhHUqeo-Ht9p-54" value="" style="endArrow=none;html=1;rounded=0;exitX=0.5;exitY=0;exitDx=0;exitDy=0;entryX=0.5;entryY=1;entryDx=0;entryDy=0;" edge="1" parent="1" source="z3j5BvlBVhHUqeo-Ht9p-34" target="z3j5BvlBVhHUqeo-Ht9p-5">
          <mxGeometry relative="1" as="geometry">
            <mxPoint x="-610" y="442" as="sourcePoint" />
            <mxPoint x="-610" y="354" as="targetPoint" />
          </mxGeometry>
        </mxCell>
        <mxCell id="z3j5BvlBVhHUqeo-Ht9p-55" value="" style="endArrow=none;html=1;rounded=0;exitX=0.5;exitY=0;exitDx=0;exitDy=0;entryX=0.5;entryY=1;entryDx=0;entryDy=0;" edge="1" parent="1" source="z3j5BvlBVhHUqeo-Ht9p-28" target="z3j5BvlBVhHUqeo-Ht9p-5">
          <mxGeometry relative="1" as="geometry">
            <mxPoint x="-600" y="452" as="sourcePoint" />
            <mxPoint x="-600" y="364" as="targetPoint" />
          </mxGeometry>
        </mxCell>
        <mxCell id="z3j5BvlBVhHUqeo-Ht9p-56" value="" style="endArrow=none;html=1;rounded=0;exitX=0.5;exitY=0;exitDx=0;exitDy=0;entryX=0.5;entryY=1;entryDx=0;entryDy=0;" edge="1" parent="1" source="z3j5BvlBVhHUqeo-Ht9p-26" target="z3j5BvlBVhHUqeo-Ht9p-5">
          <mxGeometry relative="1" as="geometry">
            <mxPoint x="-590" y="462" as="sourcePoint" />
            <mxPoint x="-590" y="374" as="targetPoint" />
          </mxGeometry>
        </mxCell>
        <mxCell id="z3j5BvlBVhHUqeo-Ht9p-57" value="" style="endArrow=none;html=1;rounded=0;exitX=0.5;exitY=0;exitDx=0;exitDy=0;entryX=0.638;entryY=1.089;entryDx=0;entryDy=0;entryPerimeter=0;" edge="1" parent="1" source="z3j5BvlBVhHUqeo-Ht9p-27" target="z3j5BvlBVhHUqeo-Ht9p-5">
          <mxGeometry relative="1" as="geometry">
            <mxPoint x="-580" y="472" as="sourcePoint" />
            <mxPoint x="-580" y="384" as="targetPoint" />
          </mxGeometry>
        </mxCell>
        <mxCell id="z3j5BvlBVhHUqeo-Ht9p-58" value="" style="endArrow=none;html=1;rounded=0;exitX=0.5;exitY=0;exitDx=0;exitDy=0;entryX=0.5;entryY=1;entryDx=0;entryDy=0;" edge="1" parent="1" source="z3j5BvlBVhHUqeo-Ht9p-35" target="z3j5BvlBVhHUqeo-Ht9p-5">
          <mxGeometry relative="1" as="geometry">
            <mxPoint x="-570" y="482" as="sourcePoint" />
            <mxPoint x="-570" y="394" as="targetPoint" />
          </mxGeometry>
        </mxCell>
        <mxCell id="z3j5BvlBVhHUqeo-Ht9p-59" value="" style="endArrow=none;html=1;rounded=0;exitX=0.5;exitY=0;exitDx=0;exitDy=0;entryX=0.5;entryY=1;entryDx=0;entryDy=0;" edge="1" parent="1" source="z3j5BvlBVhHUqeo-Ht9p-38" target="z3j5BvlBVhHUqeo-Ht9p-28">
          <mxGeometry relative="1" as="geometry">
            <mxPoint x="-560" y="492" as="sourcePoint" />
            <mxPoint x="-560" y="404" as="targetPoint" />
          </mxGeometry>
        </mxCell>
        <mxCell id="z3j5BvlBVhHUqeo-Ht9p-60" value="" style="endArrow=none;html=1;rounded=0;exitX=0.5;exitY=0;exitDx=0;exitDy=0;entryX=0.5;entryY=1;entryDx=0;entryDy=0;" edge="1" parent="1" source="z3j5BvlBVhHUqeo-Ht9p-40" target="z3j5BvlBVhHUqeo-Ht9p-28">
          <mxGeometry relative="1" as="geometry">
            <mxPoint x="-550" y="502" as="sourcePoint" />
            <mxPoint x="-550" y="414" as="targetPoint" />
          </mxGeometry>
        </mxCell>
        <mxCell id="z3j5BvlBVhHUqeo-Ht9p-61" value="" style="endArrow=none;html=1;rounded=0;exitX=0;exitY=0.5;exitDx=0;exitDy=0;entryX=0.5;entryY=1;entryDx=0;entryDy=0;" edge="1" parent="1" source="z3j5BvlBVhHUqeo-Ht9p-41" target="z3j5BvlBVhHUqeo-Ht9p-37">
          <mxGeometry relative="1" as="geometry">
            <mxPoint x="-540" y="512" as="sourcePoint" />
            <mxPoint x="-540" y="424" as="targetPoint" />
          </mxGeometry>
        </mxCell>
        <mxCell id="z3j5BvlBVhHUqeo-Ht9p-62" value="" style="endArrow=none;html=1;rounded=0;exitX=0;exitY=0.5;exitDx=0;exitDy=0;entryX=0.5;entryY=1;entryDx=0;entryDy=0;" edge="1" parent="1" source="z3j5BvlBVhHUqeo-Ht9p-43" target="z3j5BvlBVhHUqeo-Ht9p-38">
          <mxGeometry relative="1" as="geometry">
            <mxPoint x="-530" y="522" as="sourcePoint" />
            <mxPoint x="-530" y="434" as="targetPoint" />
          </mxGeometry>
        </mxCell>
        <mxCell id="z3j5BvlBVhHUqeo-Ht9p-63" value="" style="endArrow=none;html=1;rounded=0;exitX=0;exitY=0.5;exitDx=0;exitDy=0;entryX=0.5;entryY=1;entryDx=0;entryDy=0;" edge="1" parent="1" source="z3j5BvlBVhHUqeo-Ht9p-44" target="z3j5BvlBVhHUqeo-Ht9p-40">
          <mxGeometry relative="1" as="geometry">
            <mxPoint x="-520" y="532" as="sourcePoint" />
            <mxPoint x="-520" y="444" as="targetPoint" />
          </mxGeometry>
        </mxCell>
        <mxCell id="z3j5BvlBVhHUqeo-Ht9p-66" value="CommentID" style="shape=rhombus;perimeter=rhombusPerimeter;whiteSpace=wrap;html=1;align=center;" vertex="1" parent="1">
          <mxGeometry x="-480" y="276" width="80" height="50" as="geometry" />
        </mxCell>
        <mxCell id="z3j5BvlBVhHUqeo-Ht9p-67" value="PostID" style="shape=rhombus;perimeter=rhombusPerimeter;whiteSpace=wrap;html=1;align=center;" vertex="1" parent="1">
          <mxGeometry x="-390" y="276" width="80" height="50" as="geometry" />
        </mxCell>
        <mxCell id="z3j5BvlBVhHUqeo-Ht9p-68" value="" style="endArrow=none;dashed=1;html=1;dashPattern=1 3;strokeWidth=2;rounded=0;" edge="1" parent="1">
          <mxGeometry width="50" height="50" relative="1" as="geometry">
            <mxPoint x="-460" y="310" as="sourcePoint" />
            <mxPoint x="-420" y="310" as="targetPoint" />
          </mxGeometry>
        </mxCell>
        <mxCell id="z3j5BvlBVhHUqeo-Ht9p-70" value="" style="endArrow=none;dashed=1;html=1;dashPattern=1 3;strokeWidth=2;rounded=0;exitX=0.123;exitY=0.62;exitDx=0;exitDy=0;exitPerimeter=0;entryX=0.898;entryY=0.62;entryDx=0;entryDy=0;entryPerimeter=0;" edge="1" parent="1" source="z3j5BvlBVhHUqeo-Ht9p-67" target="z3j5BvlBVhHUqeo-Ht9p-67">
          <mxGeometry width="50" height="50" relative="1" as="geometry">
            <mxPoint x="-360" y="310" as="sourcePoint" />
            <mxPoint x="-320" y="310" as="targetPoint" />
          </mxGeometry>
        </mxCell>
        <mxCell id="z3j5BvlBVhHUqeo-Ht9p-71" value="" style="endArrow=none;html=1;rounded=0;exitX=0.5;exitY=0;exitDx=0;exitDy=0;entryX=0.5;entryY=1;entryDx=0;entryDy=0;" edge="1" parent="1" source="z3j5BvlBVhHUqeo-Ht9p-66" target="z3j5BvlBVhHUqeo-Ht9p-5">
          <mxGeometry relative="1" as="geometry">
            <mxPoint x="-640.67" y="412" as="sourcePoint" />
            <mxPoint x="-640.67" y="324" as="targetPoint" />
          </mxGeometry>
        </mxCell>
        <mxCell id="z3j5BvlBVhHUqeo-Ht9p-72" value="" style="endArrow=none;html=1;rounded=0;exitX=0.5;exitY=0;exitDx=0;exitDy=0;" edge="1" parent="1" source="z3j5BvlBVhHUqeo-Ht9p-67">
          <mxGeometry relative="1" as="geometry">
            <mxPoint x="-630.67" y="422" as="sourcePoint" />
            <mxPoint x="-870" y="240" as="targetPoint" />
          </mxGeometry>
        </mxCell>
        <mxCell id="z3j5BvlBVhHUqeo-Ht9p-74" value="Date" style="ellipse;whiteSpace=wrap;html=1;align=center;" vertex="1" parent="1">
          <mxGeometry x="-110" y="292" width="80" height="26" as="geometry" />
        </mxCell>
        <mxCell id="z3j5BvlBVhHUqeo-Ht9p-75" value="Text" style="ellipse;whiteSpace=wrap;html=1;align=center;" vertex="1" parent="1">
          <mxGeometry x="-5" y="292" width="80" height="26" as="geometry" />
        </mxCell>
        <mxCell id="z3j5BvlBVhHUqeo-Ht9p-76" value="Likes" style="ellipse;whiteSpace=wrap;html=1;align=center;" vertex="1" parent="1">
          <mxGeometry x="90" y="292" width="80" height="26" as="geometry" />
        </mxCell>
        <mxCell id="z3j5BvlBVhHUqeo-Ht9p-77" value="&lt;u&gt;PostID&lt;/u&gt;" style="shape=rhombus;perimeter=rhombusPerimeter;whiteSpace=wrap;html=1;align=center;" vertex="1" parent="1">
          <mxGeometry x="-220" y="276" width="80" height="50" as="geometry" />
        </mxCell>
        <mxCell id="z3j5BvlBVhHUqeo-Ht9p-78" value="ImageID" style="shape=rhombus;perimeter=rhombusPerimeter;whiteSpace=wrap;html=1;align=center;" vertex="1" parent="1">
          <mxGeometry x="310" y="276" width="80" height="50" as="geometry" />
        </mxCell>
        <mxCell id="z3j5BvlBVhHUqeo-Ht9p-79" value="" style="endArrow=none;dashed=1;html=1;dashPattern=1 3;strokeWidth=2;rounded=0;exitX=0.188;exitY=0.692;exitDx=0;exitDy=0;exitPerimeter=0;entryX=0.813;entryY=0.668;entryDx=0;entryDy=0;entryPerimeter=0;" edge="1" parent="1" source="z3j5BvlBVhHUqeo-Ht9p-78" target="z3j5BvlBVhHUqeo-Ht9p-78">
          <mxGeometry width="50" height="50" relative="1" as="geometry">
            <mxPoint x="324.91999999999996" y="304.5" as="sourcePoint" />
            <mxPoint x="375.08000000000004" y="305.5" as="targetPoint" />
            <Array as="points">
              <mxPoint x="330" y="310" />
              <mxPoint x="350" y="310" />
              <mxPoint x="360" y="310" />
            </Array>
          </mxGeometry>
        </mxCell>
        <mxCell id="z3j5BvlBVhHUqeo-Ht9p-80" value="CommentID" style="shape=rhombus;perimeter=rhombusPerimeter;whiteSpace=wrap;html=1;align=center;" vertex="1" parent="1">
          <mxGeometry x="190" y="278" width="80" height="48" as="geometry" />
        </mxCell>
        <mxCell id="z3j5BvlBVhHUqeo-Ht9p-81" value="" style="endArrow=none;dashed=1;html=1;dashPattern=1 3;strokeWidth=2;rounded=0;exitX=0.188;exitY=0.692;exitDx=0;exitDy=0;exitPerimeter=0;entryX=0.813;entryY=0.668;entryDx=0;entryDy=0;entryPerimeter=0;" edge="1" parent="1" source="z3j5BvlBVhHUqeo-Ht9p-80" target="z3j5BvlBVhHUqeo-Ht9p-80">
          <mxGeometry width="50" height="50" relative="1" as="geometry">
            <mxPoint x="204.91999999999996" y="304.5" as="sourcePoint" />
            <mxPoint x="255.08000000000004" y="305.5" as="targetPoint" />
            <Array as="points">
              <mxPoint x="210" y="310" />
              <mxPoint x="230" y="310" />
              <mxPoint x="240" y="310" />
            </Array>
          </mxGeometry>
        </mxCell>
        <mxCell id="z3j5BvlBVhHUqeo-Ht9p-82" value="" style="endArrow=none;html=1;rounded=0;exitX=0.5;exitY=0;exitDx=0;exitDy=0;entryX=0.5;entryY=1;entryDx=0;entryDy=0;" edge="1" parent="1" source="z3j5BvlBVhHUqeo-Ht9p-77" target="z3j5BvlBVhHUqeo-Ht9p-7">
          <mxGeometry relative="1" as="geometry">
            <mxPoint x="-169.99999999999994" y="488" as="sourcePoint" />
            <mxPoint x="-169.99999999999994" y="400" as="targetPoint" />
          </mxGeometry>
        </mxCell>
        <mxCell id="z3j5BvlBVhHUqeo-Ht9p-83" value="" style="endArrow=none;html=1;rounded=0;exitX=0.5;exitY=1;exitDx=0;exitDy=0;entryX=0.5;entryY=0;entryDx=0;entryDy=0;" edge="1" parent="1" source="z3j5BvlBVhHUqeo-Ht9p-7" target="z3j5BvlBVhHUqeo-Ht9p-74">
          <mxGeometry relative="1" as="geometry">
            <mxPoint x="-170" y="286" as="sourcePoint" />
            <mxPoint x="-40" y="240" as="targetPoint" />
          </mxGeometry>
        </mxCell>
        <mxCell id="z3j5BvlBVhHUqeo-Ht9p-84" value="" style="endArrow=none;html=1;rounded=0;entryX=0.5;entryY=0;entryDx=0;entryDy=0;exitX=0.5;exitY=1;exitDx=0;exitDy=0;" edge="1" parent="1" source="z3j5BvlBVhHUqeo-Ht9p-7" target="z3j5BvlBVhHUqeo-Ht9p-76">
          <mxGeometry relative="1" as="geometry">
            <mxPoint x="-10" y="260" as="sourcePoint" />
            <mxPoint x="145" y="230" as="targetPoint" />
          </mxGeometry>
        </mxCell>
        <mxCell id="z3j5BvlBVhHUqeo-Ht9p-85" value="" style="endArrow=none;html=1;rounded=0;exitX=0.5;exitY=1;exitDx=0;exitDy=0;entryX=0.5;entryY=0;entryDx=0;entryDy=0;" edge="1" parent="1" source="z3j5BvlBVhHUqeo-Ht9p-7" target="z3j5BvlBVhHUqeo-Ht9p-75">
          <mxGeometry relative="1" as="geometry">
            <mxPoint x="162.5" y="256" as="sourcePoint" />
            <mxPoint x="297.5" y="220" as="targetPoint" />
          </mxGeometry>
        </mxCell>
        <mxCell id="z3j5BvlBVhHUqeo-Ht9p-86" value="" style="endArrow=none;html=1;rounded=0;exitX=0.5;exitY=0;exitDx=0;exitDy=0;entryX=0.5;entryY=1;entryDx=0;entryDy=0;" edge="1" parent="1" source="z3j5BvlBVhHUqeo-Ht9p-78" target="z3j5BvlBVhHUqeo-Ht9p-7">
          <mxGeometry relative="1" as="geometry">
            <mxPoint x="-140" y="316" as="sourcePoint" />
            <mxPoint x="-5" y="280" as="targetPoint" />
          </mxGeometry>
        </mxCell>
        <mxCell id="z3j5BvlBVhHUqeo-Ht9p-87" value="" style="endArrow=none;html=1;rounded=0;exitX=0.5;exitY=0;exitDx=0;exitDy=0;entryX=0.5;entryY=1;entryDx=0;entryDy=0;" edge="1" parent="1" source="z3j5BvlBVhHUqeo-Ht9p-80" target="z3j5BvlBVhHUqeo-Ht9p-7">
          <mxGeometry relative="1" as="geometry">
            <mxPoint x="-130" y="326" as="sourcePoint" />
            <mxPoint x="5" y="290" as="targetPoint" />
          </mxGeometry>
        </mxCell>
        <mxCell id="z3j5BvlBVhHUqeo-Ht9p-88" value="" style="whiteSpace=wrap;html=1;rotation=90;" vertex="1" parent="1">
          <mxGeometry x="-100" y="405" width="60" height="35" as="geometry" />
        </mxCell>
        <mxCell id="z3j5BvlBVhHUqeo-Ht9p-89" value="" style="whiteSpace=wrap;html=1;rotation=90;" vertex="1" parent="1">
          <mxGeometry x="5" y="405" width="60" height="35" as="geometry" />
        </mxCell>
        <mxCell id="z3j5BvlBVhHUqeo-Ht9p-90" value="" style="whiteSpace=wrap;html=1;rotation=90;" vertex="1" parent="1">
          <mxGeometry x="100" y="407.5" width="60" height="35" as="geometry" />
        </mxCell>
        <mxCell id="z3j5BvlBVhHUqeo-Ht9p-91" value="" style="endArrow=none;html=1;rounded=0;exitX=0;exitY=0.5;exitDx=0;exitDy=0;entryX=0.5;entryY=1;entryDx=0;entryDy=0;" edge="1" parent="1" source="z3j5BvlBVhHUqeo-Ht9p-88" target="z3j5BvlBVhHUqeo-Ht9p-74">
          <mxGeometry relative="1" as="geometry">
            <mxPoint x="45" y="250" as="sourcePoint" />
            <mxPoint x="-60" y="302" as="targetPoint" />
          </mxGeometry>
        </mxCell>
        <mxCell id="z3j5BvlBVhHUqeo-Ht9p-92" value="" style="endArrow=none;html=1;rounded=0;exitX=0;exitY=0.5;exitDx=0;exitDy=0;entryX=0.5;entryY=1;entryDx=0;entryDy=0;" edge="1" parent="1" source="z3j5BvlBVhHUqeo-Ht9p-89" target="z3j5BvlBVhHUqeo-Ht9p-75">
          <mxGeometry relative="1" as="geometry">
            <mxPoint x="-60" y="403" as="sourcePoint" />
            <mxPoint x="-60" y="328" as="targetPoint" />
          </mxGeometry>
        </mxCell>
        <mxCell id="z3j5BvlBVhHUqeo-Ht9p-93" value="" style="endArrow=none;html=1;rounded=0;exitX=0;exitY=0.5;exitDx=0;exitDy=0;entryX=0.5;entryY=1;entryDx=0;entryDy=0;" edge="1" parent="1" source="z3j5BvlBVhHUqeo-Ht9p-90" target="z3j5BvlBVhHUqeo-Ht9p-76">
          <mxGeometry relative="1" as="geometry">
            <mxPoint x="-50" y="413" as="sourcePoint" />
            <mxPoint x="-50" y="338" as="targetPoint" />
          </mxGeometry>
        </mxCell>
        <mxCell id="z3j5BvlBVhHUqeo-Ht9p-95" value="Size" style="ellipse;whiteSpace=wrap;html=1;align=center;" vertex="1" parent="1">
          <mxGeometry x="545" y="292" width="80" height="26" as="geometry" />
        </mxCell>
        <mxCell id="z3j5BvlBVhHUqeo-Ht9p-96" value="Resolution" style="ellipse;whiteSpace=wrap;html=1;align=center;" vertex="1" parent="1">
          <mxGeometry x="650" y="292" width="80" height="26" as="geometry" />
        </mxCell>
        <mxCell id="z3j5BvlBVhHUqeo-Ht9p-97" value="ImgName" style="ellipse;whiteSpace=wrap;html=1;align=center;" vertex="1" parent="1">
          <mxGeometry x="760" y="292" width="80" height="26" as="geometry" />
        </mxCell>
        <mxCell id="z3j5BvlBVhHUqeo-Ht9p-98" value="&lt;u&gt;ImageID&lt;/u&gt;" style="shape=rhombus;perimeter=rhombusPerimeter;whiteSpace=wrap;html=1;align=center;" vertex="1" parent="1">
          <mxGeometry x="440" y="276" width="80" height="50" as="geometry" />
        </mxCell>
        <mxCell id="z3j5BvlBVhHUqeo-Ht9p-99" value="" style="whiteSpace=wrap;html=1;rotation=90;" vertex="1" parent="1">
          <mxGeometry x="555" y="396" width="60" height="35" as="geometry" />
        </mxCell>
        <mxCell id="z3j5BvlBVhHUqeo-Ht9p-100" value="" style="whiteSpace=wrap;html=1;rotation=90;" vertex="1" parent="1">
          <mxGeometry x="660" y="396" width="60" height="35" as="geometry" />
        </mxCell>
        <mxCell id="z3j5BvlBVhHUqeo-Ht9p-101" value="" style="whiteSpace=wrap;html=1;rotation=90;" vertex="1" parent="1">
          <mxGeometry x="770" y="396" width="60" height="35" as="geometry" />
        </mxCell>
        <mxCell id="z3j5BvlBVhHUqeo-Ht9p-102" value="" style="endArrow=none;html=1;rounded=0;entryX=0.5;entryY=1;entryDx=0;entryDy=0;exitX=0.5;exitY=0;exitDx=0;exitDy=0;" edge="1" parent="1" source="z3j5BvlBVhHUqeo-Ht9p-98" target="z3j5BvlBVhHUqeo-Ht9p-9">
          <mxGeometry relative="1" as="geometry">
            <mxPoint x="760" y="400" as="sourcePoint" />
            <mxPoint x="920" y="400" as="targetPoint" />
          </mxGeometry>
        </mxCell>
        <mxCell id="z3j5BvlBVhHUqeo-Ht9p-103" value="" style="endArrow=none;html=1;rounded=0;exitX=0.5;exitY=1;exitDx=0;exitDy=0;entryX=0.5;entryY=0;entryDx=0;entryDy=0;" edge="1" parent="1" source="z3j5BvlBVhHUqeo-Ht9p-9" target="z3j5BvlBVhHUqeo-Ht9p-95">
          <mxGeometry relative="1" as="geometry">
            <mxPoint x="790" y="340" as="sourcePoint" />
            <mxPoint x="950" y="340" as="targetPoint" />
          </mxGeometry>
        </mxCell>
        <mxCell id="z3j5BvlBVhHUqeo-Ht9p-104" value="" style="endArrow=none;html=1;rounded=0;entryX=0.5;entryY=1;entryDx=0;entryDy=0;exitX=0.5;exitY=0;exitDx=0;exitDy=0;" edge="1" parent="1" source="z3j5BvlBVhHUqeo-Ht9p-96" target="z3j5BvlBVhHUqeo-Ht9p-9">
          <mxGeometry relative="1" as="geometry">
            <mxPoint x="490" y="286" as="sourcePoint" />
            <mxPoint x="625" y="250" as="targetPoint" />
          </mxGeometry>
        </mxCell>
        <mxCell id="z3j5BvlBVhHUqeo-Ht9p-105" value="" style="endArrow=none;html=1;rounded=0;entryX=0.5;entryY=1;entryDx=0;entryDy=0;exitX=0.5;exitY=0;exitDx=0;exitDy=0;" edge="1" parent="1" source="z3j5BvlBVhHUqeo-Ht9p-97" target="z3j5BvlBVhHUqeo-Ht9p-9">
          <mxGeometry relative="1" as="geometry">
            <mxPoint x="500" y="296" as="sourcePoint" />
            <mxPoint x="635" y="260" as="targetPoint" />
          </mxGeometry>
        </mxCell>
        <mxCell id="z3j5BvlBVhHUqeo-Ht9p-106" value="" style="endArrow=none;html=1;rounded=0;entryX=0.5;entryY=1;entryDx=0;entryDy=0;exitX=0;exitY=0.5;exitDx=0;exitDy=0;" edge="1" parent="1" source="z3j5BvlBVhHUqeo-Ht9p-99" target="z3j5BvlBVhHUqeo-Ht9p-95">
          <mxGeometry relative="1" as="geometry">
            <mxPoint x="510" y="306" as="sourcePoint" />
            <mxPoint x="645" y="270" as="targetPoint" />
          </mxGeometry>
        </mxCell>
        <mxCell id="z3j5BvlBVhHUqeo-Ht9p-107" value="" style="endArrow=none;html=1;rounded=0;entryX=0.5;entryY=1;entryDx=0;entryDy=0;exitX=0;exitY=0.5;exitDx=0;exitDy=0;" edge="1" parent="1" source="z3j5BvlBVhHUqeo-Ht9p-100" target="z3j5BvlBVhHUqeo-Ht9p-96">
          <mxGeometry relative="1" as="geometry">
            <mxPoint x="520" y="316" as="sourcePoint" />
            <mxPoint x="655" y="280" as="targetPoint" />
          </mxGeometry>
        </mxCell>
        <mxCell id="z3j5BvlBVhHUqeo-Ht9p-108" value="" style="endArrow=none;html=1;rounded=0;entryX=0.5;entryY=1;entryDx=0;entryDy=0;exitX=0;exitY=0.5;exitDx=0;exitDy=0;" edge="1" parent="1" source="z3j5BvlBVhHUqeo-Ht9p-101" target="z3j5BvlBVhHUqeo-Ht9p-97">
          <mxGeometry relative="1" as="geometry">
            <mxPoint x="530" y="326" as="sourcePoint" />
            <mxPoint x="665" y="290" as="targetPoint" />
          </mxGeometry>
        </mxCell>
        <mxCell id="z3j5BvlBVhHUqeo-Ht9p-112" value="&lt;u&gt;CommentID&lt;/u&gt;" style="shape=rhombus;perimeter=rhombusPerimeter;whiteSpace=wrap;html=1;align=center;" vertex="1" parent="1">
          <mxGeometry x="910" y="276" width="80" height="50" as="geometry" />
        </mxCell>
        <mxCell id="z3j5BvlBVhHUqeo-Ht9p-113" value="UserID" style="shape=rhombus;perimeter=rhombusPerimeter;whiteSpace=wrap;html=1;align=center;" vertex="1" parent="1">
          <mxGeometry x="1330" y="278" width="80" height="50" as="geometry" />
        </mxCell>
        <mxCell id="z3j5BvlBVhHUqeo-Ht9p-114" value="" style="endArrow=none;dashed=1;html=1;dashPattern=1 3;strokeWidth=2;rounded=0;exitX=0.188;exitY=0.692;exitDx=0;exitDy=0;exitPerimeter=0;entryX=0.813;entryY=0.668;entryDx=0;entryDy=0;entryPerimeter=0;" edge="1" parent="1" source="z3j5BvlBVhHUqeo-Ht9p-113" target="z3j5BvlBVhHUqeo-Ht9p-113">
          <mxGeometry width="50" height="50" relative="1" as="geometry">
            <mxPoint x="1344.92" y="306.5" as="sourcePoint" />
            <mxPoint x="1395.08" y="307.5" as="targetPoint" />
            <Array as="points">
              <mxPoint x="1350" y="312" />
              <mxPoint x="1370" y="312" />
              <mxPoint x="1380" y="312" />
            </Array>
          </mxGeometry>
        </mxCell>
        <mxCell id="z3j5BvlBVhHUqeo-Ht9p-115" value="Date" style="ellipse;whiteSpace=wrap;html=1;align=center;" vertex="1" parent="1">
          <mxGeometry x="1020" y="290" width="80" height="26" as="geometry" />
        </mxCell>
        <mxCell id="z3j5BvlBVhHUqeo-Ht9p-116" value="Text" style="ellipse;whiteSpace=wrap;html=1;align=center;" vertex="1" parent="1">
          <mxGeometry x="1125" y="290" width="80" height="26" as="geometry" />
        </mxCell>
        <mxCell id="z3j5BvlBVhHUqeo-Ht9p-117" value="Likes" style="ellipse;whiteSpace=wrap;html=1;align=center;" vertex="1" parent="1">
          <mxGeometry x="1220" y="290" width="80" height="26" as="geometry" />
        </mxCell>
        <mxCell id="z3j5BvlBVhHUqeo-Ht9p-118" value="" style="whiteSpace=wrap;html=1;rotation=90;" vertex="1" parent="1">
          <mxGeometry x="1030" y="403" width="60" height="35" as="geometry" />
        </mxCell>
        <mxCell id="z3j5BvlBVhHUqeo-Ht9p-119" value="" style="whiteSpace=wrap;html=1;rotation=90;" vertex="1" parent="1">
          <mxGeometry x="1135" y="403" width="60" height="35" as="geometry" />
        </mxCell>
        <mxCell id="z3j5BvlBVhHUqeo-Ht9p-120" value="" style="whiteSpace=wrap;html=1;rotation=90;" vertex="1" parent="1">
          <mxGeometry x="1230" y="405.5" width="60" height="35" as="geometry" />
        </mxCell>
        <mxCell id="z3j5BvlBVhHUqeo-Ht9p-121" value="" style="endArrow=none;html=1;rounded=0;exitX=0;exitY=0.5;exitDx=0;exitDy=0;entryX=0.5;entryY=1;entryDx=0;entryDy=0;" edge="1" parent="1" source="z3j5BvlBVhHUqeo-Ht9p-118" target="z3j5BvlBVhHUqeo-Ht9p-115">
          <mxGeometry relative="1" as="geometry">
            <mxPoint x="1175" y="248" as="sourcePoint" />
            <mxPoint x="1070" y="300" as="targetPoint" />
          </mxGeometry>
        </mxCell>
        <mxCell id="z3j5BvlBVhHUqeo-Ht9p-122" value="" style="endArrow=none;html=1;rounded=0;exitX=0;exitY=0.5;exitDx=0;exitDy=0;entryX=0.5;entryY=1;entryDx=0;entryDy=0;" edge="1" parent="1" source="z3j5BvlBVhHUqeo-Ht9p-119" target="z3j5BvlBVhHUqeo-Ht9p-116">
          <mxGeometry relative="1" as="geometry">
            <mxPoint x="1070" y="401" as="sourcePoint" />
            <mxPoint x="1070" y="326" as="targetPoint" />
          </mxGeometry>
        </mxCell>
        <mxCell id="z3j5BvlBVhHUqeo-Ht9p-123" value="" style="endArrow=none;html=1;rounded=0;exitX=0;exitY=0.5;exitDx=0;exitDy=0;entryX=0.5;entryY=1;entryDx=0;entryDy=0;" edge="1" parent="1" source="z3j5BvlBVhHUqeo-Ht9p-120" target="z3j5BvlBVhHUqeo-Ht9p-117">
          <mxGeometry relative="1" as="geometry">
            <mxPoint x="1080" y="411" as="sourcePoint" />
            <mxPoint x="1080" y="336" as="targetPoint" />
          </mxGeometry>
        </mxCell>
        <mxCell id="z3j5BvlBVhHUqeo-Ht9p-124" value="" style="endArrow=none;html=1;rounded=0;exitX=0.5;exitY=1;exitDx=0;exitDy=0;entryX=0.5;entryY=0;entryDx=0;entryDy=0;" edge="1" parent="1" source="z3j5BvlBVhHUqeo-Ht9p-8" target="z3j5BvlBVhHUqeo-Ht9p-112">
          <mxGeometry relative="1" as="geometry">
            <mxPoint x="1170" y="340" as="sourcePoint" />
            <mxPoint x="1330" y="340" as="targetPoint" />
          </mxGeometry>
        </mxCell>
        <mxCell id="z3j5BvlBVhHUqeo-Ht9p-134" value="" style="endArrow=none;html=1;rounded=0;exitX=0.5;exitY=1;exitDx=0;exitDy=0;entryX=0.5;entryY=0;entryDx=0;entryDy=0;" edge="1" parent="1" source="z3j5BvlBVhHUqeo-Ht9p-8" target="z3j5BvlBVhHUqeo-Ht9p-115">
          <mxGeometry relative="1" as="geometry">
            <mxPoint x="1144" y="250" as="sourcePoint" />
            <mxPoint x="960" y="286" as="targetPoint" />
          </mxGeometry>
        </mxCell>
        <mxCell id="z3j5BvlBVhHUqeo-Ht9p-135" value="" style="endArrow=none;html=1;rounded=0;exitX=0.5;exitY=1;exitDx=0;exitDy=0;entryX=0.5;entryY=0;entryDx=0;entryDy=0;" edge="1" parent="1" source="z3j5BvlBVhHUqeo-Ht9p-8" target="z3j5BvlBVhHUqeo-Ht9p-116">
          <mxGeometry relative="1" as="geometry">
            <mxPoint x="1154" y="260" as="sourcePoint" />
            <mxPoint x="970" y="296" as="targetPoint" />
          </mxGeometry>
        </mxCell>
        <mxCell id="z3j5BvlBVhHUqeo-Ht9p-136" value="" style="endArrow=none;html=1;rounded=0;exitX=0.5;exitY=1;exitDx=0;exitDy=0;entryX=0.5;entryY=0;entryDx=0;entryDy=0;" edge="1" parent="1" source="z3j5BvlBVhHUqeo-Ht9p-8" target="z3j5BvlBVhHUqeo-Ht9p-117">
          <mxGeometry relative="1" as="geometry">
            <mxPoint x="1164" y="270" as="sourcePoint" />
            <mxPoint x="980" y="306" as="targetPoint" />
          </mxGeometry>
        </mxCell>
        <mxCell id="z3j5BvlBVhHUqeo-Ht9p-137" value="" style="endArrow=none;html=1;rounded=0;exitX=0.5;exitY=1;exitDx=0;exitDy=0;entryX=0.5;entryY=0;entryDx=0;entryDy=0;" edge="1" parent="1" source="z3j5BvlBVhHUqeo-Ht9p-8" target="z3j5BvlBVhHUqeo-Ht9p-113">
          <mxGeometry relative="1" as="geometry">
            <mxPoint x="1174" y="280" as="sourcePoint" />
            <mxPoint x="990" y="316" as="targetPoint" />
          </mxGeometry>
        </mxCell>
        <mxCell id="z3j5BvlBVhHUqeo-Ht9p-140" value="JoinDate" style="ellipse;whiteSpace=wrap;html=1;align=center;" vertex="1" parent="1">
          <mxGeometry x="1684" y="288" width="80" height="26" as="geometry" />
        </mxCell>
        <mxCell id="z3j5BvlBVhHUqeo-Ht9p-141" value="" style="whiteSpace=wrap;html=1;rotation=90;" vertex="1" parent="1">
          <mxGeometry x="1694" y="401" width="60" height="35" as="geometry" />
        </mxCell>
        <mxCell id="z3j5BvlBVhHUqeo-Ht9p-142" value="" style="endArrow=none;html=1;rounded=0;exitX=0;exitY=0.5;exitDx=0;exitDy=0;entryX=0.5;entryY=1;entryDx=0;entryDy=0;" edge="1" parent="1" source="z3j5BvlBVhHUqeo-Ht9p-141" target="z3j5BvlBVhHUqeo-Ht9p-140">
          <mxGeometry relative="1" as="geometry">
            <mxPoint x="1839" y="246" as="sourcePoint" />
            <mxPoint x="1734" y="298" as="targetPoint" />
          </mxGeometry>
        </mxCell>
        <mxCell id="z3j5BvlBVhHUqeo-Ht9p-143" value="GroupID" style="shape=rhombus;perimeter=rhombusPerimeter;whiteSpace=wrap;html=1;align=center;" vertex="1" parent="1">
          <mxGeometry x="1560" y="276" width="80" height="50" as="geometry" />
        </mxCell>
        <mxCell id="z3j5BvlBVhHUqeo-Ht9p-144" value="" style="endArrow=none;dashed=1;html=1;dashPattern=1 3;strokeWidth=2;rounded=0;exitX=0.188;exitY=0.692;exitDx=0;exitDy=0;exitPerimeter=0;entryX=0.813;entryY=0.668;entryDx=0;entryDy=0;entryPerimeter=0;" edge="1" parent="1" source="z3j5BvlBVhHUqeo-Ht9p-143" target="z3j5BvlBVhHUqeo-Ht9p-143">
          <mxGeometry width="50" height="50" relative="1" as="geometry">
            <mxPoint x="1574.92" y="304.5" as="sourcePoint" />
            <mxPoint x="1625.08" y="305.5" as="targetPoint" />
            <Array as="points">
              <mxPoint x="1580" y="310" />
              <mxPoint x="1600" y="310" />
              <mxPoint x="1610" y="310" />
            </Array>
          </mxGeometry>
        </mxCell>
        <mxCell id="z3j5BvlBVhHUqeo-Ht9p-145" value="UserID" style="shape=rhombus;perimeter=rhombusPerimeter;whiteSpace=wrap;html=1;align=center;" vertex="1" parent="1">
          <mxGeometry x="1450" y="276" width="80" height="50" as="geometry" />
        </mxCell>
        <mxCell id="z3j5BvlBVhHUqeo-Ht9p-146" value="" style="endArrow=none;dashed=1;html=1;dashPattern=1 3;strokeWidth=2;rounded=0;exitX=0.188;exitY=0.692;exitDx=0;exitDy=0;exitPerimeter=0;entryX=0.813;entryY=0.668;entryDx=0;entryDy=0;entryPerimeter=0;" edge="1" parent="1" source="z3j5BvlBVhHUqeo-Ht9p-145" target="z3j5BvlBVhHUqeo-Ht9p-145">
          <mxGeometry width="50" height="50" relative="1" as="geometry">
            <mxPoint x="1464.92" y="304.5" as="sourcePoint" />
            <mxPoint x="1515.08" y="305.5" as="targetPoint" />
            <Array as="points">
              <mxPoint x="1470" y="310" />
              <mxPoint x="1490" y="310" />
              <mxPoint x="1500" y="310" />
            </Array>
          </mxGeometry>
        </mxCell>
        <mxCell id="z3j5BvlBVhHUqeo-Ht9p-147" value="" style="endArrow=none;html=1;rounded=0;entryX=0.5;entryY=1;entryDx=0;entryDy=0;exitX=0.5;exitY=0;exitDx=0;exitDy=0;" edge="1" parent="1" source="z3j5BvlBVhHUqeo-Ht9p-145" target="z3j5BvlBVhHUqeo-Ht9p-11">
          <mxGeometry relative="1" as="geometry">
            <mxPoint x="1380" y="310" as="sourcePoint" />
            <mxPoint x="1540" y="310" as="targetPoint" />
          </mxGeometry>
        </mxCell>
        <mxCell id="z3j5BvlBVhHUqeo-Ht9p-150" value="" style="endArrow=none;html=1;rounded=0;entryX=0.5;entryY=1;entryDx=0;entryDy=0;exitX=0.5;exitY=0;exitDx=0;exitDy=0;" edge="1" parent="1" source="z3j5BvlBVhHUqeo-Ht9p-143" target="z3j5BvlBVhHUqeo-Ht9p-11">
          <mxGeometry relative="1" as="geometry">
            <mxPoint x="1500" y="286" as="sourcePoint" />
            <mxPoint x="1605" y="250" as="targetPoint" />
          </mxGeometry>
        </mxCell>
        <mxCell id="z3j5BvlBVhHUqeo-Ht9p-151" value="" style="endArrow=none;html=1;rounded=0;entryX=0.5;entryY=1;entryDx=0;entryDy=0;exitX=0.5;exitY=0;exitDx=0;exitDy=0;" edge="1" parent="1" source="z3j5BvlBVhHUqeo-Ht9p-140" target="z3j5BvlBVhHUqeo-Ht9p-11">
          <mxGeometry relative="1" as="geometry">
            <mxPoint x="1510" y="296" as="sourcePoint" />
            <mxPoint x="1615" y="260" as="targetPoint" />
          </mxGeometry>
        </mxCell>
        <mxCell id="z3j5BvlBVhHUqeo-Ht9p-152" value="&lt;u&gt;GroupID&lt;/u&gt;" style="shape=rhombus;perimeter=rhombusPerimeter;whiteSpace=wrap;html=1;align=center;" vertex="1" parent="1">
          <mxGeometry x="1830" y="278" width="80" height="50" as="geometry" />
        </mxCell>
        <mxCell id="z3j5BvlBVhHUqeo-Ht9p-155" value="MembersNum" style="ellipse;whiteSpace=wrap;html=1;align=center;" vertex="1" parent="1">
          <mxGeometry x="1940" y="292" width="80" height="26" as="geometry" />
        </mxCell>
        <mxCell id="z3j5BvlBVhHUqeo-Ht9p-156" value="Description" style="ellipse;whiteSpace=wrap;html=1;align=center;" vertex="1" parent="1">
          <mxGeometry x="2045" y="292" width="80" height="26" as="geometry" />
        </mxCell>
        <mxCell id="z3j5BvlBVhHUqeo-Ht9p-157" value="Name" style="ellipse;whiteSpace=wrap;html=1;align=center;" vertex="1" parent="1">
          <mxGeometry x="2140" y="292" width="80" height="26" as="geometry" />
        </mxCell>
        <mxCell id="z3j5BvlBVhHUqeo-Ht9p-158" value="" style="whiteSpace=wrap;html=1;rotation=90;" vertex="1" parent="1">
          <mxGeometry x="1950" y="405" width="60" height="35" as="geometry" />
        </mxCell>
        <mxCell id="z3j5BvlBVhHUqeo-Ht9p-159" value="" style="whiteSpace=wrap;html=1;rotation=90;" vertex="1" parent="1">
          <mxGeometry x="2055" y="405" width="60" height="35" as="geometry" />
        </mxCell>
        <mxCell id="z3j5BvlBVhHUqeo-Ht9p-160" value="" style="whiteSpace=wrap;html=1;rotation=90;" vertex="1" parent="1">
          <mxGeometry x="2150" y="407.5" width="60" height="35" as="geometry" />
        </mxCell>
        <mxCell id="z3j5BvlBVhHUqeo-Ht9p-161" value="" style="endArrow=none;html=1;rounded=0;exitX=0;exitY=0.5;exitDx=0;exitDy=0;entryX=0.5;entryY=1;entryDx=0;entryDy=0;" edge="1" parent="1" source="z3j5BvlBVhHUqeo-Ht9p-158" target="z3j5BvlBVhHUqeo-Ht9p-155">
          <mxGeometry relative="1" as="geometry">
            <mxPoint x="2095" y="250" as="sourcePoint" />
            <mxPoint x="1990" y="302" as="targetPoint" />
          </mxGeometry>
        </mxCell>
        <mxCell id="z3j5BvlBVhHUqeo-Ht9p-162" value="" style="endArrow=none;html=1;rounded=0;exitX=0;exitY=0.5;exitDx=0;exitDy=0;entryX=0.5;entryY=1;entryDx=0;entryDy=0;" edge="1" parent="1" source="z3j5BvlBVhHUqeo-Ht9p-159" target="z3j5BvlBVhHUqeo-Ht9p-156">
          <mxGeometry relative="1" as="geometry">
            <mxPoint x="1990" y="403" as="sourcePoint" />
            <mxPoint x="1990" y="328" as="targetPoint" />
          </mxGeometry>
        </mxCell>
        <mxCell id="z3j5BvlBVhHUqeo-Ht9p-163" value="" style="endArrow=none;html=1;rounded=0;exitX=0;exitY=0.5;exitDx=0;exitDy=0;entryX=0.5;entryY=1;entryDx=0;entryDy=0;" edge="1" parent="1" source="z3j5BvlBVhHUqeo-Ht9p-160" target="z3j5BvlBVhHUqeo-Ht9p-157">
          <mxGeometry relative="1" as="geometry">
            <mxPoint x="2000" y="413" as="sourcePoint" />
            <mxPoint x="2000" y="338" as="targetPoint" />
          </mxGeometry>
        </mxCell>
        <mxCell id="z3j5BvlBVhHUqeo-Ht9p-164" value="" style="endArrow=none;html=1;rounded=0;exitX=0.5;exitY=1;exitDx=0;exitDy=0;entryX=0.5;entryY=0;entryDx=0;entryDy=0;" edge="1" parent="1" target="z3j5BvlBVhHUqeo-Ht9p-152" source="z3j5BvlBVhHUqeo-Ht9p-10">
          <mxGeometry relative="1" as="geometry">
            <mxPoint x="2054" y="242" as="sourcePoint" />
            <mxPoint x="2250" y="342" as="targetPoint" />
          </mxGeometry>
        </mxCell>
        <mxCell id="z3j5BvlBVhHUqeo-Ht9p-165" value="" style="endArrow=none;html=1;rounded=0;exitX=0.5;exitY=1;exitDx=0;exitDy=0;entryX=0.5;entryY=0;entryDx=0;entryDy=0;" edge="1" parent="1" target="z3j5BvlBVhHUqeo-Ht9p-155" source="z3j5BvlBVhHUqeo-Ht9p-10">
          <mxGeometry relative="1" as="geometry">
            <mxPoint x="2054" y="242" as="sourcePoint" />
            <mxPoint x="1880" y="288" as="targetPoint" />
          </mxGeometry>
        </mxCell>
        <mxCell id="z3j5BvlBVhHUqeo-Ht9p-166" value="" style="endArrow=none;html=1;rounded=0;exitX=0.5;exitY=1;exitDx=0;exitDy=0;entryX=0.5;entryY=0;entryDx=0;entryDy=0;" edge="1" parent="1" target="z3j5BvlBVhHUqeo-Ht9p-156" source="z3j5BvlBVhHUqeo-Ht9p-10">
          <mxGeometry relative="1" as="geometry">
            <mxPoint x="2054" y="242" as="sourcePoint" />
            <mxPoint x="1890" y="298" as="targetPoint" />
          </mxGeometry>
        </mxCell>
        <mxCell id="z3j5BvlBVhHUqeo-Ht9p-167" value="" style="endArrow=none;html=1;rounded=0;exitX=0.5;exitY=1;exitDx=0;exitDy=0;entryX=0.5;entryY=0;entryDx=0;entryDy=0;" edge="1" parent="1" target="z3j5BvlBVhHUqeo-Ht9p-157" source="z3j5BvlBVhHUqeo-Ht9p-10">
          <mxGeometry relative="1" as="geometry">
            <mxPoint x="2054" y="242" as="sourcePoint" />
            <mxPoint x="1900" y="308" as="targetPoint" />
          </mxGeometry>
        </mxCell>
        <mxCell id="z3j5BvlBVhHUqeo-Ht9p-172" value="" style="endArrow=none;dashed=1;html=1;rounded=0;entryX=0.5;entryY=1;entryDx=0;entryDy=0;exitX=0.5;exitY=1;exitDx=0;exitDy=0;" edge="1" parent="1" source="z3j5BvlBVhHUqeo-Ht9p-143" target="z3j5BvlBVhHUqeo-Ht9p-152">
          <mxGeometry width="50" height="50" relative="1" as="geometry">
            <mxPoint x="1570" y="410" as="sourcePoint" />
            <mxPoint x="1620" y="360" as="targetPoint" />
            <Array as="points">
              <mxPoint x="1600" y="600" />
              <mxPoint x="1730" y="600" />
              <mxPoint x="1870" y="600" />
            </Array>
          </mxGeometry>
        </mxCell>
        <mxCell id="z3j5BvlBVhHUqeo-Ht9p-175" value="" style="endArrow=none;dashed=1;html=1;rounded=0;entryX=0.5;entryY=1;entryDx=0;entryDy=0;exitX=0.5;exitY=1;exitDx=0;exitDy=0;" edge="1" parent="1" source="z3j5BvlBVhHUqeo-Ht9p-35" target="z3j5BvlBVhHUqeo-Ht9p-145">
          <mxGeometry width="50" height="50" relative="1" as="geometry">
            <mxPoint x="820" y="560" as="sourcePoint" />
            <mxPoint x="1500" y="482" as="targetPoint" />
            <Array as="points">
              <mxPoint x="-530" y="760" />
              <mxPoint x="1490" y="760" />
            </Array>
          </mxGeometry>
        </mxCell>
        <mxCell id="z3j5BvlBVhHUqeo-Ht9p-176" value="" style="endArrow=none;dashed=1;html=1;rounded=0;entryX=0.5;entryY=1;entryDx=0;entryDy=0;exitX=1;exitY=1;exitDx=0;exitDy=0;" edge="1" parent="1" source="z3j5BvlBVhHUqeo-Ht9p-35" target="z3j5BvlBVhHUqeo-Ht9p-113">
          <mxGeometry width="50" height="50" relative="1" as="geometry">
            <mxPoint x="200" y="560" as="sourcePoint" />
            <mxPoint x="1890" y="348" as="targetPoint" />
            <Array as="points">
              <mxPoint x="-510" y="720" />
              <mxPoint x="1370" y="720" />
            </Array>
          </mxGeometry>
        </mxCell>
        <mxCell id="z3j5BvlBVhHUqeo-Ht9p-177" value="" style="endArrow=none;dashed=1;html=1;rounded=0;entryX=0.5;entryY=1;entryDx=0;entryDy=0;exitX=0.5;exitY=1;exitDx=0;exitDy=0;" edge="1" parent="1" source="z3j5BvlBVhHUqeo-Ht9p-78" target="z3j5BvlBVhHUqeo-Ht9p-98">
          <mxGeometry width="50" height="50" relative="1" as="geometry">
            <mxPoint x="270" y="350" as="sourcePoint" />
            <mxPoint x="540" y="352" as="targetPoint" />
            <Array as="points">
              <mxPoint x="350" y="520" />
              <mxPoint x="480" y="520" />
            </Array>
          </mxGeometry>
        </mxCell>
        <mxCell id="z3j5BvlBVhHUqeo-Ht9p-178" value="" style="endArrow=none;dashed=1;html=1;rounded=0;entryX=0.5;entryY=1;entryDx=0;entryDy=0;exitX=0.5;exitY=1;exitDx=0;exitDy=0;" edge="1" parent="1" source="z3j5BvlBVhHUqeo-Ht9p-80" target="z3j5BvlBVhHUqeo-Ht9p-112">
          <mxGeometry width="50" height="50" relative="1" as="geometry">
            <mxPoint x="360" y="336" as="sourcePoint" />
            <mxPoint x="490" y="336" as="targetPoint" />
            <Array as="points">
              <mxPoint x="230" y="600" />
              <mxPoint x="950" y="600" />
            </Array>
          </mxGeometry>
        </mxCell>
        <mxCell id="z3j5BvlBVhHUqeo-Ht9p-179" value="" style="endArrow=none;dashed=1;html=1;rounded=0;entryX=0.5;entryY=1;entryDx=0;entryDy=0;exitX=0.5;exitY=1;exitDx=0;exitDy=0;" edge="1" parent="1" source="z3j5BvlBVhHUqeo-Ht9p-67" target="z3j5BvlBVhHUqeo-Ht9p-77">
          <mxGeometry width="50" height="50" relative="1" as="geometry">
            <mxPoint x="-330" y="328" as="sourcePoint" />
            <mxPoint x="-200" y="328" as="targetPoint" />
            <Array as="points">
              <mxPoint x="-350" y="522" />
              <mxPoint x="-180" y="522" />
            </Array>
          </mxGeometry>
        </mxCell>
        <mxCell id="z3j5BvlBVhHUqeo-Ht9p-180" value="" style="endArrow=none;dashed=1;html=1;rounded=0;entryX=1;entryY=1;entryDx=0;entryDy=0;exitX=0.5;exitY=1;exitDx=0;exitDy=0;" edge="1" parent="1" source="z3j5BvlBVhHUqeo-Ht9p-66" target="z3j5BvlBVhHUqeo-Ht9p-112">
          <mxGeometry width="50" height="50" relative="1" as="geometry">
            <mxPoint x="380" y="356" as="sourcePoint" />
            <mxPoint x="510" y="356" as="targetPoint" />
            <Array as="points">
              <mxPoint x="-440" y="640" />
              <mxPoint x="970" y="640" />
            </Array>
          </mxGeometry>
        </mxCell>
        <mxCell id="z3j5BvlBVhHUqeo-Ht9p-181" value="" style="endArrow=classic;html=1;rounded=0;entryX=1;entryY=1;entryDx=0;entryDy=0;" edge="1" parent="1" target="z3j5BvlBVhHUqeo-Ht9p-112">
          <mxGeometry width="50" height="50" relative="1" as="geometry">
            <mxPoint x="970" y="330" as="sourcePoint" />
            <mxPoint x="870" y="480" as="targetPoint" />
          </mxGeometry>
        </mxCell>
        <mxCell id="z3j5BvlBVhHUqeo-Ht9p-182" value="" style="endArrow=classic;html=1;rounded=0;entryX=1;entryY=1;entryDx=0;entryDy=0;" edge="1" parent="1">
          <mxGeometry width="50" height="50" relative="1" as="geometry">
            <mxPoint x="950" y="340" as="sourcePoint" />
            <mxPoint x="949.75" y="326" as="targetPoint" />
            <Array as="points">
              <mxPoint x="949.75" y="332" />
            </Array>
          </mxGeometry>
        </mxCell>
        <mxCell id="z3j5BvlBVhHUqeo-Ht9p-183" value="" style="endArrow=classic;html=1;rounded=0;entryX=1;entryY=1;entryDx=0;entryDy=0;" edge="1" parent="1">
          <mxGeometry width="50" height="50" relative="1" as="geometry">
            <mxPoint x="1869.75" y="344" as="sourcePoint" />
            <mxPoint x="1869.75" y="328" as="targetPoint" />
          </mxGeometry>
        </mxCell>
        <mxCell id="z3j5BvlBVhHUqeo-Ht9p-184" value="" style="endArrow=classic;html=1;rounded=0;entryX=1;entryY=1;entryDx=0;entryDy=0;" edge="1" parent="1">
          <mxGeometry width="50" height="50" relative="1" as="geometry">
            <mxPoint x="479.75" y="342" as="sourcePoint" />
            <mxPoint x="479.75" y="326" as="targetPoint" />
          </mxGeometry>
        </mxCell>
        <mxCell id="z3j5BvlBVhHUqeo-Ht9p-185" value="" style="endArrow=classic;html=1;rounded=0;entryX=1;entryY=1;entryDx=0;entryDy=0;" edge="1" parent="1">
          <mxGeometry width="50" height="50" relative="1" as="geometry">
            <mxPoint x="-180.25" y="342" as="sourcePoint" />
            <mxPoint x="-180.25" y="326" as="targetPoint" />
          </mxGeometry>
        </mxCell>
        <mxCell id="z3j5BvlBVhHUqeo-Ht9p-186" value="" style="endArrow=classic;html=1;rounded=0;entryX=1;entryY=1;entryDx=0;entryDy=0;" edge="1" parent="1">
          <mxGeometry width="50" height="50" relative="1" as="geometry">
            <mxPoint x="-530.25" y="342" as="sourcePoint" />
            <mxPoint x="-530.25" y="326" as="targetPoint" />
          </mxGeometry>
        </mxCell>
        <mxCell id="z3j5BvlBVhHUqeo-Ht9p-187" value="" style="endArrow=classic;html=1;rounded=0;entryX=1;entryY=1;entryDx=0;entryDy=0;" edge="1" parent="1">
          <mxGeometry width="50" height="50" relative="1" as="geometry">
            <mxPoint x="-510" y="328" as="sourcePoint" />
            <mxPoint x="-510" y="312" as="targetPoint" />
          </mxGeometry>
        </mxCell>
      </root>
    </mxGraphModel>
  </diagram>
</mxfile>
